<svg xmlns="http://www.w3.org/2000/svg" width="114.311" height="67.779" viewBox="0 0 114.311 67.779"><defs><style>.a{fill:#83cec0;}.b{fill:#5cb7a6;}.c{fill:#ed7f73;}.d{fill:#fc9185;}.e{fill:#2a2a2a;}</style></defs><g transform="translate(0 -104.209)"><path class="a" d="M114.883,111.71H11.079A3.579,3.579,0,0,0,7.5,115.289v15.755a2.615,2.615,0,0,0,1.211,2.234,12.5,12.5,0,0,1,0,21.292A2.615,2.615,0,0,0,7.5,156.805V172.56a3.579,3.579,0,0,0,3.579,3.579h103.8a3.579,3.579,0,0,0,3.579-3.579V115.289A3.579,3.579,0,0,0,114.883,111.71Z" transform="translate(-5.826 -5.826)"/><path class="b" d="M217.152,189.45H145.564a1.79,1.79,0,0,1-1.79-1.79V137.549a1.79,1.79,0,0,1,1.79-1.79h71.588a1.79,1.79,0,0,1,1.79,1.79v50.112A1.789,1.789,0,0,1,217.152,189.45Z" transform="translate(-111.674 -24.506)"/><path class="c" d="M235.915,199.877l-9.277,5.824a2.678,2.678,0,0,1-4.021-2.921l2.672-10.622-8.405-7.023a2.678,2.678,0,0,1,1.536-4.727l10.928-.741L233.43,169.5a2.678,2.678,0,0,1,4.97,0l4.082,10.164,10.928.741a2.678,2.678,0,0,1,1.536,4.727l-8.405,7.023,2.672,10.622a2.678,2.678,0,0,1-4.021,2.921Z" transform="translate(-167.712 -49.411)"/><path class="d" d="M248.048,241.063a30.4,30.4,0,0,1-25.922-18l-3.706.251a2.678,2.678,0,0,0-1.536,4.727l8.405,7.023-2.672,10.622a2.678,2.678,0,0,0,4.021,2.921l9.277-5.824,9.276,5.824a2.678,2.678,0,0,0,4.021-2.921Z" transform="translate(-167.712 -92.321)"/><path class="e" d="M109.057,104.209H5.254A5.26,5.26,0,0,0,0,109.463v15.755a4.315,4.315,0,0,0,2,3.658A10.782,10.782,0,0,1,7.159,138.1,10.782,10.782,0,0,1,2,147.32a4.315,4.315,0,0,0-2,3.658v15.755a5.26,5.26,0,0,0,5.254,5.254h103.8a5.26,5.26,0,0,0,5.254-5.254V109.463A5.26,5.26,0,0,0,109.057,104.209Zm1.9,62.525a1.907,1.907,0,0,1-1.9,1.9H26.615v-.115a1.674,1.674,0,1,0-3.349,0v.115H5.254a1.907,1.907,0,0,1-1.9-1.9V150.979a.946.946,0,0,1,.417-.81,14.11,14.11,0,0,0,6.741-12.07,14.11,14.11,0,0,0-6.741-12.07.946.946,0,0,1-.417-.81V109.463a1.907,1.907,0,0,1,1.9-1.9H23.266v.115a1.674,1.674,0,0,0,3.349,0v-.115h82.442a1.907,1.907,0,0,1,1.9,1.9Z"/><path class="e" d="M105.884,240.484a1.674,1.674,0,0,0-1.674,1.674v3.579a1.674,1.674,0,1,0,3.349,0v-3.579A1.674,1.674,0,0,0,105.884,240.484Z" transform="translate(-80.944 -105.85)"/><path class="e" d="M105.884,144.292a1.674,1.674,0,0,0-1.674,1.674v3.579a1.674,1.674,0,1,0,3.349,0v-3.579A1.674,1.674,0,0,0,105.884,144.292Z" transform="translate(-80.944 -31.134)"/><path class="e" d="M105.884,192.387a1.674,1.674,0,0,0-1.674,1.674v3.579a1.674,1.674,0,1,0,3.349,0v-3.579A1.674,1.674,0,0,0,105.884,192.387Z" transform="translate(-80.944 -68.491)"/><path class="e" d="M105.884,288.581a1.674,1.674,0,0,0-1.674,1.674v3.579a1.674,1.674,0,1,0,3.349,0v-3.579A1.674,1.674,0,0,0,105.884,288.581Z" transform="translate(-80.944 -143.208)"/><path class="e" d="M105.884,336.677a1.674,1.674,0,0,0-1.674,1.674v3.579a1.674,1.674,0,0,0,3.349,0v-3.579A1.674,1.674,0,0,0,105.884,336.677Z" transform="translate(-80.944 -180.566)"/><path class="e" d="M247.7,172.913l-9.879-.67-3.69-9.189a4.353,4.353,0,0,0-8.078,0l-3.69,9.189-9.879.67a4.353,4.353,0,0,0-2.5,7.683l7.6,6.349-2.416,9.6a4.352,4.352,0,0,0,6.535,4.748l8.386-5.265,8.386,5.265a4.352,4.352,0,0,0,6.535-4.748l-2.416-9.6,7.6-6.349a4.353,4.353,0,0,0-2.5-7.683Zm.349,5.113-8.405,7.023a1.675,1.675,0,0,0-.55,1.693l2.672,10.622a1,1,0,0,1-1.507,1.095l-9.277-5.824a1.675,1.675,0,0,0-1.781,0l-9.277,5.824a1,1,0,0,1-1.507-1.094l2.672-10.622a1.674,1.674,0,0,0-.55-1.693l-8.405-7.023a1,1,0,0,1,.576-1.771l10.928-.741a1.675,1.675,0,0,0,1.44-1.047l4.082-10.164a1,1,0,0,1,1.862,0l4.081,10.164a1.675,1.675,0,0,0,1.441,1.047l10.928.741a1,1,0,0,1,.576,1.771Z" transform="translate(-161.891 -43.587)"/></g></svg>