<svg xmlns="http://www.w3.org/2000/svg" width="44.969" height="44.969" viewBox="0 0 44.969 44.969"><defs><style>.a{fill:#83cec0;}</style></defs><g transform="translate(10.817 14.524)"><path class="a" d="M146.054,165.932a1.823,1.823,0,0,0-2.577-.068L131.838,176.9l-5.551-5.7a1.823,1.823,0,0,0-2.612,2.544l6.806,6.988a1.824,1.824,0,0,0,2.561.051l12.944-12.275A1.823,1.823,0,0,0,146.054,165.932Z" transform="translate(-123.158 -165.364)"/></g><path class="a" d="M22.485,0A22.485,22.485,0,1,0,44.969,22.485,22.51,22.51,0,0,0,22.485,0Zm0,41.323A18.839,18.839,0,1,1,41.323,22.485,18.86,18.86,0,0,1,22.485,41.323Z"/></svg>