<svg xmlns="http://www.w3.org/2000/svg" width="114.324" height="124.012" viewBox="0 0 114.324 124.012"><defs><style>.a{fill:#5cb7a6;}.b{fill:#83cec0;}.c{fill:#ed7f73;}.d{fill:#2a2a2a;}</style></defs><g transform="translate(-20)"><path class="a" d="M122.04,218.584h9.688a7.751,7.751,0,0,0,7.751-7.751V135.751A7.751,7.751,0,0,0,131.729,128H37.751A7.751,7.751,0,0,0,30,135.751h0a7.751,7.751,0,0,0,7.751,7.751h81.625Z" transform="translate(-7.578 -96.997)"/><path class="b" d="M126.4,198.7v60.633a7.751,7.751,0,0,1-7.751,7.751h-80.9A7.751,7.751,0,0,1,30,259.335V192h89.7A6.7,6.7,0,0,1,126.4,198.7Z" transform="translate(-7.578 -145.495)"/><path class="c" d="M325.9,274.121h0a8.163,8.163,0,0,1-8.163,8.163H288.595A12.6,12.6,0,0,0,276,294.879h0a12.6,12.6,0,0,0,12.595,12.6h28.1a9.2,9.2,0,0,0,9.2-9.2h0Z" transform="translate(-193.994 -207.726)"/><path class="d" d="M124.151,118H109.981a2.422,2.422,0,0,0,0,4.844h14.169a5.335,5.335,0,0,1,5.329,5.329v27.641a5.747,5.747,0,0,1-5.741,5.741h-2.494V143.674A10.184,10.184,0,0,0,111.071,133.5H75.345v-7.387a2.422,2.422,0,0,0-4.844,0V133.5H30.173a5.329,5.329,0,1,1,0-10.657H46.2a2.422,2.422,0,0,0,0-4.844H30.173A10.184,10.184,0,0,0,20,128.173c0,.134.005.268.01.4-.005.067-.01.134-.01.2v74.483a10.184,10.184,0,0,0,10.173,10.173l93.978,0a10.184,10.184,0,0,0,10.173-10.173V128.173A10.185,10.185,0,0,0,124.151,118Zm5.329,46.7v15.263a6.79,6.79,0,0,1-6.782,6.782H94.6a10.173,10.173,0,1,1,0-20.346h29.138A10.519,10.519,0,0,0,129.48,164.7ZM24.844,203.258V136.834a10.112,10.112,0,0,0,5.329,1.512h80.9a5.335,5.335,0,0,1,5.329,5.329v17.881H94.6a15.017,15.017,0,1,0,0,30.034h21.8v11.669a5.334,5.334,0,0,1-5.217,5.326h-.112l-.056,0H30.173A5.335,5.335,0,0,1,24.844,203.258Zm99.307,5.326h-4.416a10.11,10.11,0,0,0,1.51-5.326V191.59H122.7a11.56,11.56,0,0,0,6.782-2.192v13.858A5.335,5.335,0,0,1,124.151,208.584Z" transform="translate(0 -89.419)"/><path class="d" d="M273.4,87.929a11.38,11.38,0,1,0-11.38-11.38A11.393,11.393,0,0,0,273.4,87.929Zm0-17.916a6.536,6.536,0,1,1-6.536,6.536A6.544,6.544,0,0,1,273.4,70.012Z" transform="translate(-183.396 -49.384)"/><path class="d" d="M176.4,22.761a11.38,11.38,0,1,0-11.38-11.38A11.393,11.393,0,0,0,176.4,22.761Zm0-17.916a6.536,6.536,0,1,1-6.536,6.536A6.543,6.543,0,0,1,176.4,4.844Z" transform="translate(-109.891)"/><path class="d" d="M343.748,9.626h1.374V11a2.422,2.422,0,1,0,4.844,0V9.626h1.374a2.422,2.422,0,1,0,0-4.844h-1.374V3.407a2.422,2.422,0,1,0-4.844,0V4.781h-1.374a2.422,2.422,0,1,0,0,4.844Z" transform="translate(-243.497 -0.746)"/><path class="d" d="M169.667,100.172v9.81a2.422,2.422,0,1,0,4.844,0v-9.81a2.422,2.422,0,1,0-4.844,0Z" transform="translate(-113.416 -74.074)"/><path class="d" d="M324.08,353.492a2.419,2.419,0,1,0,.707-1.712A2.437,2.437,0,0,0,324.08,353.492Z" transform="translate(-230.428 -266.037)"/><path class="d" d="M78.756,260a2.422,2.422,0,0,0-2.422,2.422v19.942a2.422,2.422,0,1,0,4.844,0V262.422A2.422,2.422,0,0,0,78.756,260Z" transform="translate(-42.689 -197.025)"/><path class="d" d="M78.752,376.84a2.423,2.423,0,1,0,1.712.71A2.441,2.441,0,0,0,78.752,376.84Z" transform="translate(-42.686 -285.565)"/></g></svg>